<svg width="155" height="61" viewBox="0 0 155 61" fill="none" xmlns="http://www.w3.org/2000/svg">
<path d="M1.40625 29V7.18182H10.8665C12.5284 7.18182 13.924 7.40554 15.0533 7.85298C16.1896 8.30043 17.0455 8.93253 17.6207 9.74929C18.2031 10.5661 18.4943 11.5284 18.4943 12.6364C18.4943 13.4389 18.3168 14.1705 17.9616 14.831C17.6136 15.4915 17.1236 16.0455 16.4915 16.4929C15.8594 16.9332 15.1207 17.2386 14.2756 17.4091V17.6222C15.2131 17.6577 16.0653 17.8956 16.8324 18.3359C17.5994 18.7692 18.2102 19.3693 18.6648 20.1364C19.1193 20.8963 19.3466 21.7912 19.3466 22.821C19.3466 24.0142 19.0341 25.076 18.4091 26.0064C17.7912 26.9368 16.9105 27.6683 15.767 28.201C14.6236 28.7337 13.2599 29 11.6761 29H1.40625ZM7.32955 24.2699H10.0994C11.0938 24.2699 11.8395 24.0852 12.3366 23.7159C12.8338 23.3395 13.0824 22.7855 13.0824 22.054C13.0824 21.5426 12.9652 21.1094 12.7308 20.7543C12.4964 20.3991 12.1626 20.1293 11.7294 19.9446C11.3033 19.7599 10.7884 19.6676 10.1847 19.6676H7.32955V24.2699ZM7.32955 16.0028H9.75852C10.277 16.0028 10.7351 15.9212 11.1328 15.7578C11.5305 15.5945 11.8395 15.3601 12.0597 15.0547C12.2869 14.7422 12.4006 14.3622 12.4006 13.9148C12.4006 13.2401 12.1591 12.7251 11.6761 12.37C11.1932 12.0078 10.5824 11.8267 9.84375 11.8267H7.32955V16.0028ZM21.4453 29V7.18182H27.3686V24.2273H36.1896V29H21.4453ZM44.2516 29H37.8596L45.0613 7.18182H53.1578L60.3596 29H53.9675L49.1948 13.1903H49.0243L44.2516 29ZM43.0584 20.392H55.0755V24.8239H43.0584V20.392ZM81.8049 15.3636H75.7963C75.7537 14.8665 75.6401 14.4155 75.4554 14.0107C75.2779 13.6058 75.0293 13.2578 74.7097 12.9666C74.3972 12.6683 74.0172 12.4411 73.5698 12.2848C73.1223 12.1214 72.6145 12.0398 72.0463 12.0398C71.052 12.0398 70.2104 12.2812 69.5215 12.7642C68.8397 13.2472 68.3212 13.9396 67.9661 14.8416C67.6181 15.7436 67.4441 16.8267 67.4441 18.0909C67.4441 19.4261 67.6216 20.5447 67.9767 21.4467C68.339 22.3416 68.861 23.0163 69.5428 23.4709C70.2246 23.9183 71.0449 24.142 72.0037 24.142C72.5506 24.142 73.0407 24.0746 73.4739 23.9396C73.9071 23.7976 74.2836 23.5952 74.6032 23.3324C74.9228 23.0696 75.182 22.7536 75.3809 22.3842C75.5868 22.0078 75.7253 21.5852 75.7963 21.1165L81.8049 21.1591C81.7338 22.0824 81.4746 23.0234 81.0272 23.9822C80.5797 24.9339 79.9441 25.8146 79.1202 26.6243C78.3034 27.4268 77.2914 28.0732 76.084 28.5632C74.8766 29.0533 73.4739 29.2983 71.8759 29.2983C69.873 29.2983 68.0762 28.8686 66.4853 28.0092C64.9015 27.1499 63.6479 25.8857 62.7246 24.2166C61.8084 22.5476 61.3503 20.5057 61.3503 18.0909C61.3503 15.6619 61.8191 13.6165 62.7566 11.9545C63.6941 10.2855 64.9583 9.02486 66.5492 8.17258C68.1401 7.31321 69.9157 6.88352 71.8759 6.88352C73.2537 6.88352 74.5215 7.07173 75.6792 7.44815C76.8368 7.82457 77.8525 8.375 78.726 9.09943C79.5996 9.81676 80.3027 10.701 80.8354 11.7521C81.3681 12.8033 81.6912 14.0071 81.8049 15.3636ZM84.4922 29V7.18182H90.4155V16.0028H90.7138L97.2763 7.18182H104.18L96.8075 16.8977L104.35 29H97.2763L92.3757 20.8182L90.4155 23.375V29H84.4922ZM111.861 7.18182V29H105.938V7.18182H111.861ZM135.037 15.3636H129.029C128.986 14.8665 128.873 14.4155 128.688 14.0107C128.51 13.6058 128.262 13.2578 127.942 12.9666C127.63 12.6683 127.25 12.4411 126.802 12.2848C126.355 12.1214 125.847 12.0398 125.279 12.0398C124.284 12.0398 123.443 12.2812 122.754 12.7642C122.072 13.2472 121.554 13.9396 121.199 14.8416C120.85 15.7436 120.676 16.8267 120.676 18.0909C120.676 19.4261 120.854 20.5447 121.209 21.4467C121.571 22.3416 122.093 23.0163 122.775 23.4709C123.457 23.9183 124.277 24.142 125.236 24.142C125.783 24.142 126.273 24.0746 126.706 23.9396C127.14 23.7976 127.516 23.5952 127.836 23.3324C128.155 23.0696 128.414 22.7536 128.613 22.3842C128.819 22.0078 128.958 21.5852 129.029 21.1165L135.037 21.1591C134.966 22.0824 134.707 23.0234 134.26 23.9822C133.812 24.9339 133.176 25.8146 132.353 26.6243C131.536 27.4268 130.524 28.0732 129.316 28.5632C128.109 29.0533 126.706 29.2983 125.108 29.2983C123.105 29.2983 121.309 28.8686 119.718 28.0092C118.134 27.1499 116.88 25.8857 115.957 24.2166C115.041 22.5476 114.583 20.5057 114.583 18.0909C114.583 15.6619 115.051 13.6165 115.989 11.9545C116.926 10.2855 118.191 9.02486 119.782 8.17258C121.373 7.31321 123.148 6.88352 125.108 6.88352C126.486 6.88352 127.754 7.07173 128.912 7.44815C130.069 7.82457 131.085 8.375 131.958 9.09943C132.832 9.81676 133.535 10.701 134.068 11.7521C134.6 12.8033 134.924 14.0071 135.037 15.3636ZM137.725 29V7.18182H153.449V11.9545H143.648V15.7045H152.639V20.4773H143.648V24.2273H153.406V29H137.725Z" fill="white"/>
<path d="M3.62642 47.1591L2.32777 55H0.873935L3.65092 38.2727H5.10476L4.09197 44.4229H4.22266C4.6147 43.7695 5.15376 43.2522 5.83984 42.8711C6.52592 42.4845 7.34541 42.2912 8.2983 42.2912C9.14228 42.2912 9.85559 42.4654 10.4382 42.8139C11.0263 43.1624 11.4428 43.677 11.6879 44.3576C11.9383 45.0382 11.9819 45.8768 11.8185 46.8732L10.4545 55H8.99254L10.332 46.9631C10.5008 45.9285 10.3484 45.1145 9.87465 44.521C9.40637 43.922 8.68762 43.6225 7.7184 43.6225C7.0541 43.6225 6.43336 43.7641 5.85618 44.0472C5.28445 44.3304 4.79983 44.7388 4.40234 45.2724C4.0103 45.8005 3.75166 46.4295 3.62642 47.1591ZM17.7544 55.2859C16.9975 55.2859 16.3305 55.1388 15.7533 54.8448C15.1761 54.5453 14.7459 54.1152 14.4628 53.5543C14.1851 52.988 14.1089 52.302 14.2341 51.4961C14.343 50.8754 14.5499 50.3526 14.8548 49.9279C15.1652 49.5032 15.5573 49.1547 16.031 48.8825C16.5047 48.6048 17.0492 48.387 17.6645 48.229C18.2798 48.0711 18.9495 47.9513 19.6737 47.8697C20.3816 47.7826 20.986 47.7063 21.487 47.641C21.9879 47.5756 22.3772 47.4722 22.6549 47.3306C22.9326 47.189 23.0987 46.9603 23.1531 46.6445L23.2021 46.3505C23.3437 45.4956 23.213 44.8232 22.8101 44.3331C22.4072 43.8376 21.732 43.5898 20.7845 43.5898C19.8807 43.5898 19.0966 43.7913 18.4323 44.1942C17.7734 44.5917 17.2834 45.0573 16.9621 45.5909L15.6716 45.0927C16.0637 44.4066 16.5455 43.8594 17.1173 43.451C17.689 43.0372 18.3016 42.7404 18.955 42.5607C19.6084 42.3756 20.2536 42.283 20.8907 42.283C21.3699 42.283 21.8572 42.3456 22.3527 42.4709C22.8482 42.5961 23.292 42.8139 23.684 43.1243C24.0815 43.4292 24.3728 43.8567 24.558 44.4066C24.7486 44.9511 24.7758 45.6426 24.6396 46.4812L23.2185 55H21.7646L22.0995 53.0153H22.0097C21.781 53.3855 21.4652 53.7449 21.0622 54.0934C20.6647 54.4419 20.1883 54.7277 19.6329 54.951C19.0775 55.1742 18.4513 55.2859 17.7544 55.2859ZM18.1219 53.9545C18.8951 53.9545 19.5948 53.783 20.221 53.44C20.8526 53.0969 21.3699 52.6423 21.7728 52.076C22.1812 51.5043 22.4426 50.8754 22.5569 50.1893L22.8591 48.3761C22.7393 48.4795 22.5433 48.5721 22.271 48.6538C22.0042 48.7354 21.702 48.8089 21.3644 48.8743C21.0323 48.9342 20.6974 48.9859 20.3598 49.0295C20.0277 49.073 19.7336 49.1112 19.4777 49.1438C18.7535 49.2309 18.1219 49.3671 17.5828 49.5522C17.0492 49.7373 16.6218 49.9933 16.3005 50.32C15.9793 50.6412 15.7778 51.055 15.6961 51.5614C15.5709 52.3237 15.7369 52.9145 16.1943 53.3338C16.6572 53.7476 17.2997 53.9545 18.1219 53.9545ZM31.9537 55.2614C30.8212 55.2614 29.8873 54.9809 29.1523 54.4201C28.4172 53.8593 27.9026 53.0915 27.6086 52.1168C27.32 51.1367 27.2791 50.0259 27.4861 48.7844C27.693 47.5212 28.1095 46.4022 28.7357 45.4276C29.3619 44.4474 30.1351 43.6797 31.0553 43.1243C31.981 42.5634 32.991 42.283 34.0855 42.283C34.9295 42.283 35.6646 42.4464 36.2907 42.7731C36.9169 43.0943 37.4015 43.549 37.7446 44.1371C38.0876 44.7197 38.251 45.4003 38.2346 46.179H36.7645C36.7264 45.4548 36.4623 44.8449 35.9722 44.3494C35.4876 43.8539 34.8015 43.6062 33.914 43.6062C33.1027 43.6062 32.3512 43.824 31.6597 44.2596C30.9682 44.6897 30.3828 45.2914 29.9037 46.0646C29.43 46.8324 29.1114 47.7227 28.9481 48.7354C28.7738 49.7537 28.7902 50.6548 28.9971 51.4389C29.204 52.2176 29.5742 52.8274 30.1079 53.2685C30.6469 53.7095 31.3276 53.93 32.1498 53.93C32.7106 53.93 33.2388 53.8266 33.7343 53.6197C34.2298 53.4073 34.6681 53.1078 35.0493 52.7212C35.4304 52.3292 35.7217 51.8691 35.9232 51.3409H37.3934C37.1483 52.1032 36.7617 52.7784 36.2336 53.3665C35.7108 53.9545 35.0847 54.4174 34.355 54.755C33.6254 55.0926 32.825 55.2614 31.9537 55.2614ZM41.9958 50.2628L42.2899 48.3434H42.6166L49.4692 42.4545H51.3314L44.5605 48.2699L44.4298 48.2944L41.9958 50.2628ZM39.8886 55L42.6656 38.2727H44.1194L41.3424 55H39.8886ZM47.7295 55L43.6865 48.5558L44.8708 47.5511L49.5672 55H47.7295ZM56.4954 55.2614C55.3247 55.2614 54.3582 54.9891 53.5959 54.4446C52.8336 53.8946 52.3 53.1351 51.995 52.1658C51.6901 51.1912 51.6438 50.0695 51.8562 48.8008C52.0685 47.5375 52.4878 46.4158 53.114 45.4357C53.7402 44.4502 54.5134 43.6797 55.4336 43.1243C56.3538 42.5634 57.353 42.283 58.4311 42.283C59.1117 42.283 59.7488 42.4083 60.3423 42.6587C60.9358 42.9038 61.4395 43.2822 61.8533 43.794C62.2726 44.3004 62.5639 44.9402 62.7273 45.7134C62.8906 46.4812 62.8852 47.3905 62.7109 48.4414L62.5966 49.1602H52.7955L52.9996 47.8778H61.3224C61.4586 47.072 61.4205 46.3478 61.2081 45.7053C60.9957 45.0627 60.6336 44.5536 60.1218 44.1779C59.6154 43.7968 58.9865 43.6062 58.2351 43.6062C57.4673 43.6062 56.7404 43.8213 56.0543 44.2514C55.3737 44.6816 54.7965 45.2424 54.3228 45.9339C53.8545 46.62 53.5523 47.3524 53.4162 48.131L53.2528 49.0948C53.0786 50.1566 53.1004 51.0469 53.3182 51.7656C53.536 52.4789 53.9308 53.018 54.5025 53.3828C55.0742 53.7476 55.8066 53.93 56.6996 53.93C57.2985 53.93 57.8403 53.8375 58.3249 53.6523C58.8095 53.4672 59.2315 53.2195 59.5909 52.9091C59.9503 52.5933 60.2389 52.2475 60.4567 51.8718L61.7553 52.321C61.4776 52.8492 61.0856 53.3365 60.5792 53.783C60.0782 54.2295 59.482 54.5889 58.7905 54.8612C58.1044 55.128 57.3394 55.2614 56.4954 55.2614ZM64.8202 55L66.9111 42.4545H68.3241L67.9974 44.3821H68.1036C68.4521 43.7505 68.9721 43.2414 69.6636 42.8548C70.3606 42.4627 71.1038 42.2667 71.8934 42.2667C72.0132 42.2667 72.1466 42.2694 72.2936 42.2749C72.4406 42.2749 72.5631 42.2803 72.6611 42.2912L72.4079 43.7695C72.3426 43.7586 72.2282 43.7423 72.0649 43.7205C71.907 43.6987 71.73 43.6879 71.534 43.6879C70.8806 43.6879 70.2762 43.8267 69.7208 44.1044C69.1708 44.3767 68.708 44.7551 68.3323 45.2397C67.962 45.7243 67.7224 46.277 67.6135 46.8977L66.2741 55H64.8202ZM83.1034 45.207L81.7068 45.5664C81.636 45.1907 81.5053 44.8531 81.3147 44.5536C81.1296 44.2487 80.8601 44.0091 80.5061 43.8349C80.1576 43.6552 79.7003 43.5653 79.134 43.5653C78.2845 43.5653 77.5522 43.7723 76.9369 44.1861C76.3216 44.5945 75.9622 45.1172 75.8588 45.7543C75.7716 46.2879 75.8833 46.7208 76.1936 47.0529C76.5094 47.3851 77.0376 47.6464 77.7781 47.837L79.6077 48.3026C80.6205 48.5639 81.3419 48.9723 81.7721 49.5277C82.2077 50.0831 82.3575 50.7855 82.2213 51.6349C82.1015 52.3428 81.7993 52.969 81.3147 53.5135C80.8356 54.058 80.2203 54.4854 79.4688 54.7958C78.7229 55.1062 77.8898 55.2614 76.9695 55.2614C75.7335 55.2614 74.7616 54.9837 74.0537 54.4283C73.3513 53.8729 72.9756 53.0724 72.9266 52.027L74.3886 51.7003C74.4321 52.4408 74.6853 53.0017 75.1482 53.3828C75.6164 53.764 76.2753 53.9545 77.1247 53.9545C78.094 53.9545 78.908 53.734 79.5669 53.293C80.2257 52.8519 80.6041 52.3074 80.7021 51.6594C80.7947 51.1476 80.6994 50.7229 80.4163 50.3853C80.1386 50.0477 79.6649 49.7972 78.9951 49.6339L77.0431 49.1438C75.9922 48.877 75.2489 48.4605 74.8133 47.8942C74.3831 47.3224 74.2388 46.6173 74.3804 45.7788C74.4948 45.0872 74.7834 44.4801 75.2462 43.9574C75.709 43.4347 76.2944 43.0263 77.0022 42.7322C77.7101 42.4328 78.4833 42.283 79.3218 42.283C80.4762 42.283 81.3556 42.5444 81.96 43.0671C82.5644 43.5844 82.9455 44.2977 83.1034 45.207ZM84.0488 59.7045L86.9402 42.4545H88.3532L87.9611 44.8477H88.1326C88.3613 44.4719 88.6581 44.0853 89.0229 43.6879C89.3932 43.2904 89.8533 42.9582 90.4032 42.6914C90.9586 42.4192 91.6229 42.283 92.3961 42.283C93.4307 42.283 94.2883 42.5526 94.9689 43.0916C95.655 43.6307 96.1342 44.3875 96.4064 45.3622C96.6841 46.3369 96.7141 47.4695 96.4963 48.7599C96.2839 50.0559 95.8783 51.1912 95.2793 52.1658C94.6803 53.1405 93.948 53.9001 93.0822 54.4446C92.2219 54.9891 91.2799 55.2614 90.2562 55.2614C89.4993 55.2614 88.8868 55.1252 88.4185 54.853C87.9557 54.5807 87.6017 54.2459 87.3567 53.8484C87.1117 53.4454 86.9347 53.0534 86.8258 52.6722H86.6951L85.519 59.7045H84.0488ZM87.3322 48.7354C87.1689 49.7482 87.1689 50.6467 87.3322 51.4308C87.4956 52.2094 87.825 52.822 88.3205 53.2685C88.816 53.7095 89.4694 53.93 90.2807 53.93C91.1138 53.93 91.8571 53.7013 92.5105 53.244C93.1639 52.7811 93.7084 52.1577 94.144 51.3736C94.5796 50.5895 94.8791 49.7101 95.0424 48.7354C95.1949 47.7717 95.1895 46.9032 95.0261 46.13C94.8627 45.3568 94.536 44.7442 94.046 44.2923C93.5559 43.8349 92.8889 43.6062 92.0449 43.6062C91.2282 43.6062 90.4931 43.8267 89.8397 44.2678C89.1917 44.7034 88.6526 45.3078 88.2225 46.081C87.7923 46.8487 87.4956 47.7335 87.3322 48.7354ZM102.118 55.2859C101.361 55.2859 100.694 55.1388 100.117 54.8448C99.5394 54.5453 99.1092 54.1152 98.8261 53.5543C98.5484 52.988 98.4722 52.302 98.5974 51.4961C98.7063 50.8754 98.9132 50.3526 99.2181 49.9279C99.5285 49.5032 99.9205 49.1547 100.394 48.8825C100.868 48.6048 101.412 48.387 102.028 48.229C102.643 48.0711 103.313 47.9513 104.037 47.8697C104.745 47.7826 105.349 47.7063 105.85 47.641C106.351 47.5756 106.741 47.4722 107.018 47.3306C107.296 47.189 107.462 46.9603 107.516 46.6445L107.565 46.3505C107.707 45.4956 107.576 44.8232 107.173 44.3331C106.77 43.8376 106.095 43.5898 105.148 43.5898C104.244 43.5898 103.46 43.7913 102.796 44.1942C102.137 44.5917 101.647 45.0573 101.325 45.5909L100.035 45.0927C100.427 44.4066 100.909 43.8594 101.481 43.451C102.052 43.0372 102.665 42.7404 103.318 42.5607C103.972 42.3756 104.617 42.283 105.254 42.283C105.733 42.283 106.22 42.3456 106.716 42.4709C107.211 42.5961 107.655 42.8139 108.047 43.1243C108.445 43.4292 108.736 43.8567 108.921 44.4066C109.112 44.9511 109.139 45.6426 109.003 46.4812L107.582 55H106.128L106.463 53.0153H106.373C106.144 53.3855 105.828 53.7449 105.426 54.0934C105.028 54.4419 104.552 54.7277 103.996 54.951C103.441 55.1742 102.815 55.2859 102.118 55.2859ZM102.485 53.9545C103.258 53.9545 103.958 53.783 104.584 53.44C105.216 53.0969 105.733 52.6423 106.136 52.076C106.544 51.5043 106.806 50.8754 106.92 50.1893L107.222 48.3761C107.103 48.4795 106.907 48.5721 106.634 48.6538C106.368 48.7354 106.065 48.8089 105.728 48.8743C105.396 48.9342 105.061 48.9859 104.723 49.0295C104.391 49.073 104.097 49.1112 103.841 49.1438C103.117 49.2309 102.485 49.3671 101.946 49.5522C101.412 49.7373 100.985 49.9933 100.664 50.32C100.343 50.6412 100.141 51.055 100.059 51.5614C99.9342 52.3237 100.1 52.9145 100.558 53.3338C101.02 53.7476 101.663 53.9545 102.485 53.9545ZM116.317 55.2614C115.184 55.2614 114.251 54.9809 113.516 54.4201C112.78 53.8593 112.266 53.0915 111.972 52.1168C111.683 51.1367 111.642 50.0259 111.849 48.7844C112.056 47.5212 112.473 46.4022 113.099 45.4276C113.725 44.4474 114.498 43.6797 115.419 43.1243C116.344 42.5634 117.354 42.283 118.449 42.283C119.293 42.283 120.028 42.4464 120.654 42.7731C121.28 43.0943 121.765 43.549 122.108 44.1371C122.451 44.7197 122.614 45.4003 122.598 46.179H121.128C121.09 45.4548 120.826 44.8449 120.335 44.3494C119.851 43.8539 119.165 43.6062 118.277 43.6062C117.466 43.6062 116.715 43.824 116.023 44.2596C115.331 44.6897 114.746 45.2914 114.267 46.0646C113.793 46.8324 113.475 47.7227 113.311 48.7354C113.137 49.7537 113.153 50.6548 113.36 51.4389C113.567 52.2176 113.938 52.8274 114.471 53.2685C115.01 53.7095 115.691 53.93 116.513 53.93C117.074 53.93 117.602 53.8266 118.098 53.6197C118.593 53.4073 119.031 53.1078 119.413 52.7212C119.794 52.3292 120.085 51.8691 120.286 51.3409H121.757C121.512 52.1032 121.125 52.7784 120.597 53.3665C120.074 53.9545 119.448 54.4174 118.718 54.755C117.989 55.0926 117.188 55.2614 116.317 55.2614ZM129.291 55.2614C128.121 55.2614 127.154 54.9891 126.392 54.4446C125.629 53.8946 125.096 53.1351 124.791 52.1658C124.486 51.1912 124.44 50.0695 124.652 48.8008C124.864 47.5375 125.284 46.4158 125.91 45.4357C126.536 44.4502 127.309 43.6797 128.229 43.1243C129.15 42.5634 130.149 42.283 131.227 42.283C131.908 42.283 132.545 42.4083 133.138 42.6587C133.732 42.9038 134.235 43.2822 134.649 43.794C135.069 44.3004 135.36 44.9402 135.523 45.7134C135.687 46.4812 135.681 47.3905 135.507 48.4414L135.392 49.1602H125.591L125.796 47.8778H134.118C134.254 47.072 134.216 46.3478 134.004 45.7053C133.792 45.0627 133.43 44.5536 132.918 44.1779C132.411 43.7968 131.782 43.6062 131.031 43.6062C130.263 43.6062 129.536 43.8213 128.85 44.2514C128.17 44.6816 127.592 45.2424 127.119 45.9339C126.65 46.62 126.348 47.3524 126.212 48.131L126.049 49.0948C125.874 50.1566 125.896 51.0469 126.114 51.7656C126.332 52.4789 126.727 53.018 127.298 53.3828C127.87 53.7476 128.602 53.93 129.495 53.93C130.094 53.93 130.636 53.8375 131.121 53.6523C131.605 53.4672 132.027 53.2195 132.387 52.9091C132.746 52.5933 133.035 52.2475 133.253 51.8718L134.551 52.321C134.274 52.8492 133.881 53.3365 133.375 53.783C132.874 54.2295 132.278 54.5889 131.586 54.8612C130.9 55.128 130.135 55.2614 129.291 55.2614Z" fill="white"/>
</svg>
