<?xml version="1.0" encoding="utf-8"?>
<svg width="155" height="61" viewBox="0 0 155 61" fill="none" xmlns="http://www.w3.org/2000/svg">
  <defs>
    <linearGradient id="paint0_linear_67_27" x1="382" y1="336" x2="257" y2="413.5" gradientUnits="userSpaceOnUse">
      <stop id="stop41"/>
      <stop offset="0.5596" stop-color="#7A9A85" stop-opacity="0.5" id="stop42"/>
      <stop offset="1" id="stop43"/>
    </linearGradient>
    <linearGradient id="paint1_linear_67_27" x1="266.926" y1="236.745" x2="438.982" y2="141.882" gradientUnits="userSpaceOnUse">
      <stop stop-color="#7A9A85" id="stop44"/>
      <stop offset="1" stop-opacity="0.72" id="stop45"/>
    </linearGradient>
    <linearGradient id="paint2_linear_67_27" x1="261.437" y1="253.284" x2="489.663" y2="398.57" gradientUnits="userSpaceOnUse">
      <stop stop-color="#7A9A85" id="stop46"/>
      <stop offset="1" stop-opacity="0.72" id="stop47"/>
    </linearGradient>
    <linearGradient id="paint3_linear_67_27" x1="248" y1="70" x2="369" y2="142.5" gradientUnits="userSpaceOnUse">
      <stop id="stop48"/>
      <stop offset="0.5" stop-color="#7A9A85" stop-opacity="0.5" id="stop49"/>
      <stop offset="1" id="stop50"/>
    </linearGradient>
    <linearGradient id="paint4_linear_67_27" x1="330" y1="206" x2="330" y2="233" gradientUnits="userSpaceOnUse">
      <stop id="stop51"/>
      <stop offset="1" stop-color="#7A9A85" id="stop52"/>
    </linearGradient>
    <linearGradient id="paint5_linear_67_27" x1="270.5" y1="282" x2="270.5" y2="338" gradientUnits="userSpaceOnUse">
      <stop id="stop53"/>
      <stop offset="1" stop-color="#7A9A85" id="stop54"/>
    </linearGradient>
    <linearGradient id="paint6_linear_67_27" x1="268.5" y1="320" x2="268.5" y2="363" gradientUnits="userSpaceOnUse">
      <stop id="stop55"/>
      <stop offset="1" stop-color="#7A9A85" id="stop56"/>
    </linearGradient>
    <linearGradient id="paint7_linear_67_27" x1="391" y1="181" x2="391" y2="595" gradientUnits="userSpaceOnUse">
      <stop id="stop57"/>
      <stop offset="1" stop-color="#7A9A85" id="stop58"/>
    </linearGradient>
    <linearGradient id="paint8_linear_67_27" x1="387" y1="67.5" x2="390" y2="147" gradientUnits="userSpaceOnUse">
      <stop stop-color="#7A9A85" id="stop59"/>
      <stop offset="1" id="stop60"/>
    </linearGradient>
    <linearGradient id="paint9_linear_67_27" x1="382" y1="336" x2="257" y2="413.5" gradientUnits="userSpaceOnUse">
      <stop id="stop61"/>
      <stop offset="0.5596" stop-color="#9B9B9B" stop-opacity="0.5" id="stop62"/>
      <stop offset="1" id="stop63"/>
    </linearGradient>
    <linearGradient id="paint10_linear_67_27" x1="266.926" y1="236.745" x2="438.982" y2="141.882" gradientUnits="userSpaceOnUse">
      <stop stop-color="#9B9B9B" id="stop64"/>
      <stop offset="1" stop-opacity="0.72" id="stop65"/>
    </linearGradient>
    <linearGradient id="paint11_linear_67_27" x1="261.437" y1="253.284" x2="489.663" y2="398.57" gradientUnits="userSpaceOnUse">
      <stop stop-color="#9B9B9B" id="stop66"/>
      <stop offset="1" stop-opacity="0.72" id="stop67"/>
    </linearGradient>
    <linearGradient id="paint12_linear_67_27" x1="248" y1="70" x2="369" y2="142.5" gradientUnits="userSpaceOnUse">
      <stop id="stop68"/>
      <stop offset="0.5" stop-color="#9B9B9B" stop-opacity="0.5" id="stop69"/>
      <stop offset="1" id="stop70"/>
    </linearGradient>
    <linearGradient id="paint13_linear_67_27" x1="330" y1="206" x2="330" y2="233" gradientUnits="userSpaceOnUse">
      <stop id="stop71"/>
      <stop offset="1" stop-color="#9B9B9B" id="stop72"/>
    </linearGradient>
    <linearGradient id="paint14_linear_67_27" x1="270.5" y1="282" x2="270.5" y2="338" gradientUnits="userSpaceOnUse">
      <stop id="stop73"/>
      <stop offset="1" stop-color="#9B9B9B" id="stop74"/>
    </linearGradient>
    <linearGradient id="paint15_linear_67_27" x1="268.5" y1="320" x2="268.5" y2="363" gradientUnits="userSpaceOnUse">
      <stop id="stop75"/>
      <stop offset="1" stop-color="#9B9B9B" id="stop76"/>
    </linearGradient>
    <linearGradient id="paint16_linear_67_27" x1="391" y1="181" x2="391" y2="595" gradientUnits="userSpaceOnUse">
      <stop id="stop77"/>
      <stop offset="1" stop-color="#9B9B9B" id="stop78"/>
    </linearGradient>
    <linearGradient id="paint17_linear_67_27" x1="387" y1="67.5" x2="390" y2="147" gradientUnits="userSpaceOnUse">
      <stop stop-color="#9B9B9B" id="stop79"/>
      <stop offset="1" id="stop80"/>
    </linearGradient>
    <clipPath id="clip0_67_27">
      <rect width="500" height="500" fill="white" id="rect80"/>
    </clipPath>
  </defs>
  <path d="M 46.318 29.04 L 46.318 13.571 L 53.025 13.571 C 54.203 13.571 55.193 13.73 55.993 14.047 C 56.799 14.364 57.406 14.812 57.814 15.391 C 58.227 15.97 58.433 16.653 58.433 17.438 C 58.433 18.007 58.307 18.526 58.055 18.994 C 57.809 19.462 57.461 19.855 57.013 20.172 C 56.565 20.485 56.041 20.701 55.442 20.822 L 55.442 20.973 C 56.107 20.998 56.711 21.167 57.255 21.479 C 57.799 21.786 58.232 22.212 58.554 22.756 C 58.876 23.294 59.037 23.929 59.037 24.659 C 59.037 25.505 58.816 26.258 58.373 26.918 C 57.935 27.577 57.31 28.096 56.499 28.474 C 55.689 28.851 54.722 29.04 53.599 29.04 L 46.318 29.04 Z M 50.517 25.686 L 52.481 25.686 C 53.186 25.686 53.715 25.555 54.067 25.294 C 54.42 25.027 54.596 24.634 54.596 24.115 C 54.596 23.753 54.513 23.446 54.347 23.194 C 54.181 22.942 53.944 22.751 53.637 22.62 C 53.335 22.489 52.97 22.423 52.542 22.423 L 50.517 22.423 L 50.517 25.686 Z M 50.517 19.825 L 52.239 19.825 C 52.607 19.825 52.932 19.767 53.214 19.651 C 53.496 19.535 53.715 19.369 53.871 19.153 C 54.032 18.931 54.113 18.662 54.113 18.345 C 54.113 17.866 53.941 17.501 53.599 17.249 C 53.257 16.993 52.824 16.864 52.3 16.864 L 50.517 16.864 L 50.517 19.825 Z M 60.525 29.04 L 60.525 13.571 L 64.725 13.571 L 64.725 25.656 L 70.979 25.656 L 70.979 29.04 L 60.525 29.04 Z M 76.695 29.04 L 72.163 29.04 L 77.269 13.571 L 83.009 13.571 L 88.116 29.04 L 83.584 29.04 L 80.2 17.831 L 80.079 17.831 L 76.695 29.04 Z M 75.849 22.937 L 84.369 22.937 L 84.369 26.079 L 75.849 26.079 L 75.849 22.937 Z M 103.32 19.372 L 99.06 19.372 C 99.03 19.019 98.949 18.7 98.819 18.413 C 98.693 18.126 98.516 17.879 98.29 17.672 C 98.068 17.461 97.799 17.3 97.482 17.189 C 97.164 17.073 96.804 17.015 96.401 17.015 C 95.696 17.015 95.1 17.186 94.611 17.529 C 94.128 17.871 93.76 18.362 93.509 19.002 C 93.262 19.641 93.138 20.409 93.138 21.305 C 93.138 22.252 93.264 23.045 93.516 23.685 C 93.773 24.319 94.143 24.798 94.626 25.12 C 95.11 25.437 95.691 25.596 96.371 25.596 C 96.759 25.596 97.106 25.548 97.414 25.452 C 97.721 25.351 97.988 25.208 98.214 25.022 C 98.441 24.835 98.625 24.611 98.766 24.349 C 98.912 24.083 99.01 23.783 99.06 23.451 L 103.32 23.481 C 103.27 24.135 103.086 24.803 102.769 25.482 C 102.452 26.157 102.001 26.782 101.417 27.356 C 100.838 27.925 100.12 28.383 99.264 28.73 C 98.408 29.078 97.414 29.251 96.281 29.251 C 94.861 29.251 93.587 28.947 92.459 28.338 C 91.336 27.728 90.447 26.832 89.792 25.649 C 89.143 24.465 88.818 23.018 88.818 21.305 C 88.818 19.583 89.15 18.133 89.815 16.955 C 90.48 15.771 91.376 14.878 92.504 14.273 C 93.632 13.664 94.891 13.359 96.281 13.359 C 97.257 13.359 98.156 13.493 98.977 13.76 C 99.798 14.027 100.518 14.417 101.137 14.93 C 101.757 15.439 102.255 16.066 102.633 16.811 C 103.011 17.557 103.24 18.41 103.32 19.372 Z M 105.226 29.04 L 105.226 13.571 L 109.425 13.571 L 109.425 19.825 L 109.637 19.825 L 114.29 13.571 L 119.184 13.571 L 113.957 20.459 L 119.305 29.04 L 114.29 29.04 L 110.815 23.239 L 109.425 25.052 L 109.425 29.04 L 105.226 29.04 Z M 124.63 13.571 L 124.63 29.04 L 120.431 29.04 L 120.431 13.571 L 124.63 13.571 Z M 141.062 19.372 L 136.802 19.372 C 136.772 19.019 136.692 18.7 136.56 18.413 C 136.434 18.126 136.258 17.879 136.032 17.672 C 135.81 17.461 135.541 17.3 135.223 17.189 C 134.906 17.073 134.546 17.015 134.143 17.015 C 133.438 17.015 132.842 17.186 132.353 17.529 C 131.87 17.871 131.502 18.362 131.251 19.002 C 131.003 19.641 130.88 20.409 130.88 21.305 C 130.88 22.252 131.006 23.045 131.258 23.685 C 131.514 24.319 131.885 24.798 132.368 25.12 C 132.852 25.437 133.433 25.596 134.113 25.596 C 134.501 25.596 134.848 25.548 135.155 25.452 C 135.463 25.351 135.729 25.208 135.956 25.022 C 136.183 24.835 136.366 24.611 136.507 24.349 C 136.653 24.083 136.752 23.783 136.802 23.451 L 141.062 23.481 C 141.012 24.135 140.828 24.803 140.511 25.482 C 140.193 26.157 139.742 26.782 139.159 27.356 C 138.58 27.925 137.862 28.383 137.006 28.73 C 136.15 29.078 135.155 29.251 134.022 29.251 C 132.602 29.251 131.329 28.947 130.201 28.338 C 129.078 27.728 128.189 26.832 127.534 25.649 C 126.885 24.465 126.56 23.018 126.56 21.305 C 126.56 19.583 126.892 18.133 127.557 16.955 C 128.221 15.771 129.118 14.878 130.246 14.273 C 131.374 13.664 132.633 13.359 134.022 13.359 C 134.999 13.359 135.898 13.493 136.719 13.76 C 137.54 14.027 138.26 14.417 138.879 14.93 C 139.499 15.439 139.997 16.066 140.375 16.811 C 140.752 17.557 140.982 18.41 141.062 19.372 Z M 142.968 29.04 L 142.968 13.571 L 154.116 13.571 L 154.116 16.955 L 147.167 16.955 L 147.167 19.613 L 153.542 19.613 L 153.542 22.997 L 147.167 22.997 L 147.167 25.656 L 154.086 25.656 L 154.086 29.04 L 142.968 29.04 Z" fill="white" style=""/>
  <path d="M 47.892 41.915 L 46.971 47.474 L 45.94 47.474 L 47.909 35.614 L 48.94 35.614 L 48.222 39.975 L 48.314 39.975 C 48.592 39.512 48.975 39.145 49.461 38.875 C 49.947 38.601 50.528 38.463 51.204 38.463 C 51.802 38.463 52.308 38.587 52.721 38.834 C 53.138 39.081 53.434 39.446 53.607 39.929 C 53.785 40.411 53.816 41.006 53.7 41.712 L 52.733 47.474 L 51.696 47.474 L 52.646 41.776 C 52.766 41.042 52.658 40.465 52.322 40.044 C 51.99 39.62 51.48 39.407 50.793 39.407 C 50.322 39.407 49.882 39.508 49.473 39.708 C 49.067 39.909 48.724 40.199 48.442 40.577 C 48.164 40.952 47.981 41.398 47.892 41.915 Z M 57.908 47.677 C 57.372 47.677 56.899 47.572 56.49 47.364 C 56.08 47.152 55.775 46.847 55.575 46.449 C 55.378 46.047 55.324 45.561 55.413 44.99 C 55.49 44.55 55.636 44.179 55.853 43.878 C 56.073 43.577 56.351 43.33 56.687 43.137 C 57.022 42.94 57.408 42.785 57.845 42.673 C 58.281 42.561 58.756 42.476 59.269 42.419 C 59.771 42.357 60.2 42.303 60.555 42.256 C 60.91 42.21 61.186 42.137 61.383 42.036 C 61.58 41.936 61.698 41.774 61.736 41.55 L 61.771 41.342 C 61.871 40.735 61.779 40.259 61.493 39.911 C 61.207 39.56 60.729 39.384 60.057 39.384 C 59.416 39.384 58.86 39.527 58.389 39.813 C 57.922 40.095 57.575 40.425 57.347 40.803 L 56.432 40.45 C 56.71 39.963 57.051 39.575 57.457 39.286 C 57.862 38.992 58.296 38.782 58.76 38.655 C 59.223 38.523 59.68 38.458 60.132 38.458 C 60.472 38.458 60.817 38.502 61.169 38.591 C 61.52 38.68 61.835 38.834 62.113 39.054 C 62.394 39.27 62.601 39.573 62.732 39.963 C 62.867 40.349 62.887 40.84 62.79 41.434 L 61.783 47.474 L 60.752 47.474 L 60.989 46.067 L 60.925 46.067 C 60.763 46.329 60.539 46.584 60.254 46.831 C 59.972 47.078 59.634 47.281 59.24 47.439 C 58.847 47.598 58.403 47.677 57.908 47.677 Z M 58.169 46.733 C 58.717 46.733 59.213 46.611 59.657 46.368 C 60.105 46.125 60.472 45.802 60.758 45.401 C 61.047 44.996 61.232 44.55 61.313 44.063 L 61.528 42.778 C 61.443 42.851 61.304 42.917 61.111 42.975 C 60.922 43.032 60.707 43.085 60.468 43.131 C 60.233 43.173 59.995 43.21 59.756 43.241 C 59.52 43.272 59.312 43.299 59.13 43.322 C 58.617 43.384 58.169 43.48 57.787 43.612 C 57.408 43.743 57.105 43.924 56.878 44.156 C 56.65 44.384 56.507 44.677 56.449 45.036 C 56.36 45.577 56.478 45.995 56.802 46.293 C 57.131 46.586 57.586 46.733 58.169 46.733 Z M 67.976 47.659 C 67.173 47.659 66.511 47.46 65.99 47.063 C 65.468 46.665 65.104 46.121 64.895 45.43 C 64.69 44.735 64.661 43.947 64.808 43.067 C 64.955 42.172 65.25 41.378 65.694 40.687 C 66.138 39.992 66.686 39.448 67.339 39.054 C 67.995 38.656 68.711 38.458 69.487 38.458 C 70.086 38.458 70.607 38.573 71.051 38.805 C 71.495 39.033 71.838 39.355 72.082 39.772 C 72.325 40.185 72.441 40.668 72.429 41.22 L 71.387 41.22 C 71.36 40.706 71.172 40.274 70.825 39.923 C 70.481 39.571 69.995 39.396 69.366 39.396 C 68.79 39.396 68.258 39.55 67.767 39.859 C 67.277 40.164 66.862 40.591 66.522 41.139 C 66.186 41.683 65.961 42.314 65.845 43.032 C 65.721 43.754 65.733 44.393 65.88 44.949 C 66.026 45.501 66.289 45.934 66.667 46.246 C 67.049 46.559 67.532 46.715 68.115 46.715 C 68.512 46.715 68.887 46.642 69.238 46.495 C 69.59 46.345 69.9 46.132 70.171 45.858 C 70.441 45.58 70.647 45.254 70.79 44.88 L 71.833 44.88 C 71.659 45.42 71.385 45.899 71.01 46.316 C 70.64 46.733 70.196 47.061 69.678 47.3 C 69.161 47.54 68.594 47.659 67.976 47.659 Z M 75.096 44.115 L 75.304 42.754 L 75.536 42.754 L 80.394 38.579 L 81.715 38.579 L 76.914 42.702 L 76.821 42.72 L 75.096 44.115 Z M 73.602 47.474 L 75.571 35.614 L 76.601 35.614 L 74.632 47.474 L 73.602 47.474 Z M 79.161 47.474 L 76.294 42.905 L 77.134 42.193 L 80.464 47.474 L 79.161 47.474 Z M 85.376 47.659 C 84.546 47.659 83.861 47.466 83.32 47.08 C 82.78 46.69 82.401 46.152 82.185 45.465 C 81.969 44.774 81.936 43.978 82.087 43.079 C 82.237 42.183 82.534 41.388 82.978 40.693 C 83.422 39.994 83.971 39.448 84.623 39.054 C 85.275 38.656 85.984 38.458 86.748 38.458 C 87.231 38.458 87.683 38.546 88.103 38.724 C 88.524 38.898 88.881 39.166 89.175 39.529 C 89.472 39.888 89.678 40.342 89.794 40.89 C 89.91 41.434 89.906 42.079 89.783 42.824 L 89.702 43.334 L 82.753 43.334 L 82.897 42.424 L 88.798 42.424 C 88.895 41.853 88.868 41.34 88.717 40.884 C 88.567 40.428 88.31 40.068 87.947 39.801 C 87.588 39.531 87.142 39.396 86.609 39.396 C 86.065 39.396 85.55 39.548 85.063 39.853 C 84.581 40.158 84.171 40.556 83.835 41.046 C 83.503 41.533 83.289 42.052 83.193 42.604 L 83.077 43.287 C 82.953 44.04 82.969 44.671 83.123 45.181 C 83.278 45.687 83.558 46.069 83.963 46.327 C 84.368 46.586 84.887 46.715 85.521 46.715 C 85.945 46.715 86.329 46.65 86.673 46.518 C 87.017 46.387 87.316 46.212 87.571 45.992 C 87.825 45.768 88.03 45.522 88.184 45.256 L 89.105 45.575 C 88.908 45.949 88.63 46.295 88.271 46.611 C 87.916 46.928 87.493 47.183 87.003 47.376 C 86.517 47.565 85.974 47.659 85.376 47.659 Z M 91.278 47.474 L 92.761 38.579 L 93.762 38.579 L 93.531 39.946 L 93.606 39.946 C 93.853 39.498 94.222 39.137 94.712 38.863 C 95.206 38.585 95.733 38.446 96.293 38.446 C 96.378 38.446 96.473 38.448 96.577 38.452 C 96.681 38.452 96.768 38.456 96.837 38.463 L 96.658 39.512 C 96.612 39.504 96.53 39.492 96.415 39.477 C 96.303 39.461 96.177 39.454 96.038 39.454 C 95.575 39.454 95.146 39.552 94.753 39.749 C 94.363 39.942 94.035 40.21 93.768 40.554 C 93.506 40.898 93.336 41.289 93.259 41.729 L 92.309 47.474 L 91.278 47.474 Z M 104.241 40.531 L 103.251 40.786 C 103.201 40.519 103.108 40.28 102.973 40.068 C 102.842 39.851 102.65 39.681 102.399 39.558 C 102.152 39.431 101.828 39.367 101.427 39.367 C 100.824 39.367 100.305 39.514 99.869 39.807 C 99.433 40.097 99.178 40.467 99.105 40.919 C 99.043 41.297 99.122 41.604 99.342 41.84 C 99.566 42.075 99.94 42.26 100.465 42.395 L 101.762 42.726 C 102.481 42.911 102.992 43.2 103.297 43.594 C 103.606 43.988 103.712 44.486 103.616 45.088 C 103.531 45.59 103.316 46.034 102.973 46.42 C 102.633 46.806 102.197 47.109 101.664 47.329 C 101.135 47.549 100.544 47.659 99.892 47.659 C 99.016 47.659 98.327 47.462 97.825 47.069 C 97.327 46.675 97.06 46.107 97.026 45.366 L 98.062 45.135 C 98.093 45.66 98.273 46.057 98.601 46.327 C 98.933 46.598 99.4 46.733 100.002 46.733 C 100.689 46.733 101.266 46.576 101.734 46.264 C 102.201 45.951 102.469 45.565 102.538 45.106 C 102.604 44.743 102.537 44.442 102.336 44.202 C 102.139 43.963 101.803 43.785 101.328 43.669 L 99.944 43.322 C 99.199 43.133 98.672 42.837 98.363 42.436 C 98.058 42.031 97.956 41.531 98.056 40.936 C 98.137 40.446 98.342 40.015 98.67 39.645 C 98.998 39.274 99.413 38.985 99.915 38.776 C 100.417 38.564 100.965 38.458 101.56 38.458 C 102.378 38.458 103.002 38.643 103.43 39.014 C 103.859 39.38 104.129 39.886 104.241 40.531 Z M 104.911 50.809 L 106.961 38.579 L 107.963 38.579 L 107.685 40.276 L 107.807 40.276 C 107.969 40.01 108.179 39.735 108.438 39.454 C 108.7 39.172 109.027 38.936 109.417 38.747 C 109.81 38.554 110.281 38.458 110.829 38.458 C 111.563 38.458 112.171 38.649 112.654 39.031 C 113.14 39.413 113.48 39.95 113.673 40.641 C 113.87 41.332 113.891 42.135 113.737 43.05 C 113.586 43.969 113.298 44.774 112.874 45.465 C 112.449 46.156 111.93 46.694 111.316 47.08 C 110.706 47.466 110.038 47.659 109.312 47.659 C 108.776 47.659 108.341 47.563 108.009 47.37 C 107.681 47.177 107.43 46.939 107.257 46.658 C 107.083 46.372 106.957 46.094 106.88 45.824 L 106.787 45.824 L 105.954 50.809 L 104.911 50.809 Z M 107.239 43.032 C 107.123 43.75 107.123 44.388 107.239 44.943 C 107.355 45.495 107.589 45.93 107.94 46.246 C 108.291 46.559 108.754 46.715 109.33 46.715 C 109.92 46.715 110.447 46.553 110.911 46.229 C 111.374 45.901 111.76 45.459 112.069 44.903 C 112.378 44.347 112.59 43.723 112.706 43.032 C 112.814 42.349 112.81 41.733 112.694 41.185 C 112.578 40.637 112.347 40.203 111.999 39.882 C 111.652 39.558 111.179 39.396 110.58 39.396 C 110.001 39.396 109.48 39.552 109.017 39.865 C 108.558 40.174 108.175 40.602 107.87 41.15 C 107.565 41.695 107.355 42.322 107.239 43.032 Z M 117.722 47.677 C 117.186 47.677 116.713 47.572 116.304 47.364 C 115.894 47.152 115.589 46.847 115.388 46.449 C 115.191 46.047 115.137 45.561 115.226 44.99 C 115.303 44.55 115.45 44.179 115.666 43.878 C 115.886 43.577 116.164 43.33 116.5 43.137 C 116.836 42.94 117.222 42.785 117.658 42.673 C 118.095 42.561 118.57 42.476 119.083 42.419 C 119.585 42.357 120.013 42.303 120.368 42.256 C 120.723 42.21 121 42.137 121.196 42.036 C 121.394 41.936 121.511 41.774 121.549 41.55 L 121.584 41.342 C 121.685 40.735 121.592 40.259 121.306 39.911 C 121.021 39.56 120.542 39.384 119.871 39.384 C 119.23 39.384 118.674 39.527 118.203 39.813 C 117.736 40.095 117.388 40.425 117.16 40.803 L 116.245 40.45 C 116.523 39.963 116.865 39.575 117.271 39.286 C 117.676 38.992 118.11 38.782 118.573 38.655 C 119.037 38.523 119.494 38.458 119.946 38.458 C 120.285 38.458 120.631 38.502 120.982 38.591 C 121.333 38.68 121.648 38.834 121.926 39.054 C 122.208 39.27 122.414 39.573 122.546 39.963 C 122.681 40.349 122.7 40.84 122.604 41.434 L 121.596 47.474 L 120.565 47.474 L 120.803 46.067 L 120.739 46.067 C 120.577 46.329 120.353 46.584 120.068 46.831 C 119.785 47.078 119.448 47.281 119.054 47.439 C 118.66 47.598 118.216 47.677 117.722 47.677 Z M 117.983 46.733 C 118.531 46.733 119.027 46.611 119.471 46.368 C 119.919 46.125 120.285 45.802 120.571 45.401 C 120.86 44.996 121.046 44.55 121.127 44.063 L 121.341 42.778 C 121.257 42.851 121.118 42.917 120.924 42.975 C 120.736 43.032 120.521 43.085 120.282 43.131 C 120.046 43.173 119.809 43.21 119.569 43.241 C 119.334 43.272 119.125 43.299 118.944 43.322 C 118.431 43.384 117.983 43.48 117.6 43.612 C 117.222 43.743 116.919 43.924 116.691 44.156 C 116.464 44.384 116.321 44.677 116.262 45.036 C 116.174 45.577 116.292 45.995 116.616 46.293 C 116.944 46.586 117.4 46.733 117.983 46.733 Z M 127.789 47.659 C 126.986 47.659 126.325 47.46 125.803 47.063 C 125.282 46.665 124.917 46.121 124.709 45.43 C 124.504 44.735 124.475 43.947 124.622 43.067 C 124.768 42.172 125.064 41.378 125.508 40.687 C 125.952 39.992 126.5 39.448 127.153 39.054 C 127.809 38.656 128.525 38.458 129.301 38.458 C 129.899 38.458 130.42 38.573 130.864 38.805 C 131.308 39.033 131.652 39.355 131.895 39.772 C 132.138 40.185 132.254 40.668 132.243 41.22 L 131.2 41.22 C 131.173 40.706 130.986 40.274 130.638 39.923 C 130.295 39.571 129.809 39.396 129.179 39.396 C 128.604 39.396 128.072 39.55 127.581 39.859 C 127.09 40.164 126.676 40.591 126.336 41.139 C 126 41.683 125.774 42.314 125.658 43.032 C 125.535 43.754 125.546 44.393 125.693 44.949 C 125.84 45.501 126.103 45.934 126.481 46.246 C 126.863 46.559 127.346 46.715 127.928 46.715 C 128.326 46.715 128.7 46.642 129.052 46.495 C 129.403 46.345 129.714 46.132 129.984 45.858 C 130.255 45.58 130.461 45.254 130.603 44.88 L 131.646 44.88 C 131.473 45.42 131.198 45.899 130.824 46.316 C 130.453 46.733 130.009 47.061 129.492 47.3 C 128.975 47.54 128.407 47.659 127.789 47.659 Z M 136.988 47.659 C 136.158 47.659 135.473 47.466 134.933 47.08 C 134.392 46.69 134.014 46.152 133.797 45.465 C 133.581 44.774 133.549 43.978 133.699 43.079 C 133.849 42.183 134.147 41.388 134.591 40.693 C 135.035 39.994 135.583 39.448 136.235 39.054 C 136.888 38.656 137.596 38.458 138.361 38.458 C 138.843 38.458 139.295 38.546 139.715 38.724 C 140.137 38.898 140.493 39.166 140.787 39.529 C 141.085 39.888 141.291 40.342 141.406 40.89 C 141.523 41.434 141.518 42.079 141.395 42.824 L 141.314 43.334 L 134.365 43.334 L 134.51 42.424 L 140.41 42.424 C 140.507 41.853 140.48 41.34 140.329 40.884 C 140.179 40.428 139.923 40.068 139.56 39.801 C 139.2 39.531 138.754 39.396 138.222 39.396 C 137.677 39.396 137.162 39.548 136.675 39.853 C 136.193 40.158 135.783 40.556 135.448 41.046 C 135.116 41.533 134.901 42.052 134.805 42.604 L 134.689 43.287 C 134.565 44.04 134.581 44.671 134.735 45.181 C 134.89 45.687 135.17 46.069 135.575 46.327 C 135.98 46.586 136.499 46.715 137.133 46.715 C 137.557 46.715 137.942 46.65 138.285 46.518 C 138.629 46.387 138.928 46.212 139.183 45.992 C 139.438 45.768 139.642 45.522 139.797 45.256 L 140.717 45.575 C 140.521 45.949 140.242 46.295 139.884 46.611 C 139.528 46.928 139.106 47.183 138.615 47.376 C 138.129 47.565 137.586 47.659 136.988 47.659 Z" fill="white" style=""/>
  <g id="svg80">
    <g clip-path="url(#clip0_67_27)" id="g41" transform="matrix(0.077115, 0, 0, 0.077115, 1.225765, 10.692649)" style="">
      <path d="M251 85.9524V32L235.5 69.1361L127 130.095V154.619L251 85.9524Z" fill="#7A9A85" id="path1"/>
      <path d="M251 90.1565V238L242.545 196.66L211.545 158.122V135.701L245.364 170.034L242.545 104.17L251 90.1565Z" fill="#7A9A85" id="path2"/>
      <path d="M205.958 207.938L245 241L189.923 217.083L161.338 234.669L139.725 229.041L155.063 219.897L172.493 205.828L97.1972 170.655L78.3732 180.503L76.2817 157.29L47 139H70.007L186.437 200.2L172.493 157.29L189.923 162.917L205.958 207.938Z" fill="#7A9A85" id="path3"/>
      <path d="M251 405.107V466L235.5 424.087L127 355.285V327.607L251 405.107Z" fill="#7A9A85" id="path4"/>
      <path d="M251 400.362V246L242.545 280.158L208.727 323.771V339.885L242.545 309.057V320.268L211.545 353.898V366.51L244.659 339.885L242.545 384.546L251 400.362Z" fill="#7A9A85" id="path5"/>
      <path d="M382 328L261 398.492L265.172 414L382 347.033V328Z" fill="url(#paint0_linear_67_27)" id="path6"/>
      <path d="M209.063 271.955L245.727 242.836L191.465 260.48L165.339 257.974L149.693 254.799L135.578 264.175L166.449 274.772L101.985 318.53L82.3956 308.766L82.0157 334.859L52.63 357.34L77.0803 355.723L189.22 279.586L178.756 333.565L195.666 324.028L209.063 271.955Z" fill="#7A9A85" id="path7"/>
      <path d="M436 141L255 241L287.271 205.539L306.915 165.823L323.05 154.475L311.826 199.156L351.814 172.915L412.147 146.674L436 141Z" fill="url(#paint1_linear_67_27)" id="path8"/>
      <path d="M269.172 251.213L253 245L286.75 275.374L303.625 311.961L326.125 333.361L308.547 278.826L433 352L422.453 336.123L326.125 278.826L359.875 262.258L345.109 251.213L303.625 267.781L269.172 251.213Z" fill="url(#paint2_linear_67_27)" id="path9"/>
      <path d="M113 119L98.7143 126.694L98 365.213L105.143 382L113 365.213V119Z" fill="#7A9A85" id="path10"/>
      <path d="M258.68 70.1765L251 45V85.5621L369 152V133.817L258.68 70.1765Z" fill="url(#paint3_linear_67_27)" fill-opacity="0.72" id="path11"/>
      <path d="M287 137L251 175.152V202L287 158.196V137Z" fill="#7A9A85" fill-opacity="0.5" id="path12"/>
      <path d="M316.552 206L300 215.237L339.31 233H349.655L360 225.895L316.552 206Z" fill="url(#paint4_linear_67_27)" fill-opacity="0.72" id="path13"/>
      <path d="M289.278 323.114L251 282V306.81L270.5 322.405L290 338L289.278 323.114Z" fill="url(#paint5_linear_67_27)" fill-opacity="0.72" id="path14"/>
      <path d="M286 350.906L251 320V336.797L286 363V350.906Z" fill="url(#paint6_linear_67_27)" fill-opacity="0.72" id="path15"/>
      <path d="M397 176L382 190.038V312L399 322.5L397 176Z" fill="url(#paint7_linear_67_27)" fill-opacity="0.72" id="path16"/>
      <path d="M397 130.615L382 123V159L397 152.769V130.615Z" fill="url(#paint8_linear_67_27)" id="path17"/>
      <path d="M249.5 17L454.315 133.5V366.5L249.5 483L44.685 366.5V133.5L249.5 17Z" fill="black" id="path18"/>
      <path d="M249.5 -2L270.718 35.5H228.282L249.5 -2Z" fill="black" id="path19"/>
      <path d="M20.0793 127.618L63.2491 123.623L45.9741 162.389L20.0793 127.618Z" fill="black" id="path20"/>
      <path d="M428.592 124.198L471.862 126.892L448.829 162.54L428.592 124.198Z" fill="black" id="path21"/>
      <path d="M24.78 375.271L45.4446 337.159L68.078 373.062L24.78 375.271Z" fill="black" id="path22"/>
      <path d="M429.84 374.271L450.505 336.159L473.138 372.062L429.84 374.271Z" fill="black" id="path23"/>
      <path d="M251.496 502.44L230.235 464.657L272.676 464.611L251.496 502.44Z" fill="black" id="path24"/>
      <path d="M251 85.9524V32L235.5 69.1361L127 130.095V154.619L251 85.9524Z" fill="white" id="path25"/>
      <path d="M251 90.1565V238L242.545 196.66L211.545 158.122V135.701L245.364 170.034L242.545 104.17L251 90.1565Z" fill="white" id="path26"/>
      <path d="M205.958 207.938L245 241L189.923 217.083L161.338 234.669L139.725 229.041L155.063 219.897L172.493 205.828L97.1972 170.655L78.3732 180.503L76.2817 157.29L47 139H70.007L186.437 200.2L172.493 157.29L189.923 162.917L205.958 207.938Z" fill="white" id="path27"/>
      <path d="M251 405.107V466L235.5 424.087L127 355.285V327.607L251 405.107Z" fill="white" id="path28"/>
      <path d="M251 400.362V246L242.545 280.158L208.727 323.771V339.885L242.545 309.057V320.268L211.545 353.898V366.51L244.659 339.885L242.545 384.546L251 400.362Z" fill="white" id="path29"/>
      <path d="M382 328L261 398.492L265.172 414L382 347.033V328Z" fill="url(#paint9_linear_67_27)" id="path30"/>
      <path d="M209.063 271.955L245.727 242.836L191.465 260.48L165.339 257.974L149.693 254.799L135.578 264.175L166.449 274.772L101.985 318.53L82.3956 308.766L82.0157 334.859L52.63 357.34L77.0803 355.723L189.22 279.586L178.756 333.565L195.666 324.028L209.063 271.955Z" fill="white" id="path31"/>
      <path d="M436 141L255 241L287.271 205.539L306.915 165.823L323.05 154.475L311.826 199.156L351.814 172.915L412.147 146.674L436 141Z" fill="url(#paint10_linear_67_27)" id="path32"/>
      <path d="M269.172 251.213L253 245L286.75 275.374L303.625 311.961L326.125 333.361L308.547 278.826L433 352L422.453 336.123L326.125 278.826L359.875 262.258L345.109 251.213L303.625 267.781L269.172 251.213Z" fill="url(#paint11_linear_67_27)" id="path33"/>
      <path d="M113 119L98.7143 126.694L98 365.213L105.143 382L113 365.213V119Z" fill="white" id="path34"/>
      <path d="M258.68 70.1765L251 45V85.5621L369 152V133.817L258.68 70.1765Z" fill="url(#paint12_linear_67_27)" fill-opacity="0.72" id="path35"/>
      <path d="M287 137L251 175.152V202L287 158.196V137Z" fill="#9B9B9B" fill-opacity="0.5" id="path36"/>
      <path d="M317 206.5L301 215.5L339.31 233H349.655L360 225.895L317 206.5Z" fill="url(#paint13_linear_67_27)" fill-opacity="0.72" id="path37"/>
      <path d="M289.278 323.114L251 282V306.81L270.5 322.405L290 338L289.278 323.114Z" fill="url(#paint14_linear_67_27)" fill-opacity="0.72" id="path38"/>
      <path d="M286 350.906L251 320V336.797L286 363V350.906Z" fill="url(#paint15_linear_67_27)" fill-opacity="0.72" id="path39"/>
      <path d="M397 176L382 190.038V312L399 322.5L397 176Z" fill="url(#paint16_linear_67_27)" fill-opacity="0.72" id="path40"/>
      <path d="M397 130.615L382 123V159L397 152.769V130.615Z" fill="url(#paint17_linear_67_27)" id="path41"/>
    </g>
  </g>
</svg>
